<svg class="icon" style="width: 1em;height: 1em;vertical-align: middle;fill: currentColor;overflow: hidden;" viewBox="0 0 1024 1024" version="1.1" xmlns="http://www.w3.org/2000/svg" p-id="2259"><path d="M512 909.061224c-218.906122 0-397.061224-178.155102-397.061224-397.061224s178.155102-397.061224 397.061224-397.061224 397.061224 178.155102 397.061224 397.061224-178.155102 397.061224-397.061224 397.061224z" fill="#F2CB51" p-id="2260"></path><path d="M687.020408 460.277551l-160.914286-160.914286c-1.044898-1.044898-1.567347-1.567347-2.612244-2.089796-0.522449-0.522449-1.044898-0.522449-1.567347-1.044898-0.522449-0.522449-1.044898-0.522449-2.089796-1.044898-0.522449-0.522449-1.567347-0.522449-2.089796-0.522449-0.522449 0-1.044898-0.522449-1.567347-0.522448-1.044898 0-2.612245-0.522449-3.657143-0.522449-1.044898 0-2.612245 0-3.657143 0.522449-0.522449 0-1.044898 0.522449-1.567347 0.522448-0.522449 0-1.567347 0.522449-2.089796 0.522449-0.522449 0.522449-1.044898 0.522449-1.567347 1.044898-0.522449 0.522449-1.044898 0.522449-1.567347 1.044898-1.044898 0.522449-2.089796 1.567347-2.612245 2.089796L336.979592 460.277551c-7.836735 7.836735-7.836735 20.37551 0 28.212245 3.657143 3.657143 8.881633 5.746939 14.106122 5.746939s9.926531-2.089796 14.106123-5.746939l126.955102-126.955102V710.530612c0 10.971429 8.881633 19.853061 19.853061 19.853061s19.853061-8.881633 19.853061-19.853061V361.534694l126.955102 126.955102c3.657143 3.657143 8.881633 5.746939 14.106123 5.746939 5.22449 0 9.926531-2.089796 14.106122-5.746939 7.836735-7.836735 7.836735-20.37551 0-28.212245z" fill="#AF8015" p-id="2261"></path></svg>